<?xml version="1.0" encoding="UTF-8" standalone="no"?>
<svg
   xmlns:dc="http://purl.org/dc/elements/1.1/"
   xmlns:cc="http://creativecommons.org/ns#"
   xmlns:rdf="http://www.w3.org/1999/02/22-rdf-syntax-ns#"
   xmlns:svg="http://www.w3.org/2000/svg"
   xmlns="http://www.w3.org/2000/svg"
   viewBox="91 84 300 300"
   height="300"
   width="300"
   xml:space="preserve"
   id="svg2"
   version="1.1"><metadata
     id="metadata8"><rdf:RDF><cc:Work
         rdf:about=""><dc:format>image/svg+xml</dc:format><dc:type
           rdf:resource="http://purl.org/dc/dcmitype/StillImage" /></cc:Work></rdf:RDF></metadata><defs
     id="defs6"><clipPath
       id="clipPath30"
       clipPathUnits="userSpaceOnUse"><path
         id="path28"
         d="M 0,351.065 H 362.5 V 0 H 0 Z" /></clipPath><linearGradient
       id="linearGradient108"
       spreadMethod="pad"
       gradientTransform="matrix(25.568115,-36.260235,-36.260235,-25.568115,190.07889,191.12024)"
       gradientUnits="userSpaceOnUse"
       y2="0"
       x2="1"
       y1="0"
       x1="0"><stop
         id="stop104"
         offset="0"
         style="stop-opacity:1;stop-color:#3e4493" /><stop
         id="stop106"
         offset="1"
         style="stop-opacity:1;stop-color:#7375b5" /></linearGradient></defs><g
     transform="matrix(1.3333333,0,0,-1.3333333,0,468.08667)"
     id="g10"><path
       id="path12"
       style="fill:#ffffff;fill-opacity:0;fill-rule:nonzero;stroke:none"
       d="M 0,0 H 362.5 V 351.065 H 0 Z" /><g
       transform="translate(120.8164,117.0489)"
       id="g14"><path
         id="path16"
         style="fill:#373535;fill-opacity:1;fill-rule:nonzero;stroke:none"
         d="M 0,0 H 4.42 V -3.968 H 0.021 v -4.91 H -4.765 V 5.605 H 5.012 V 1.534 L 0,1.534 Z" /></g><path
       id="path18"
       style="fill:#373535;fill-opacity:1;fill-rule:nonzero;stroke:none"
       d="m 134.071,122.654 h 4.908 v -14.483 h -4.908 z" /><g
       transform="translate(147.8154,122.6544)"
       id="g20"><path
         id="path22"
         style="fill:#373535;fill-opacity:1;fill-rule:nonzero;stroke:none"
         d="M 0,0 H 4.847 L 8.979,-7.343 H 9.062 L 8.858,0 h 4.623 V -14.483 H 8.509 L 4.5,-7.568 H 4.418 l 0.205,-6.915 H 0 Z" /></g><g
       id="g24"><g
         clip-path="url(#clipPath30)"
         id="g26"><g
           transform="translate(177.353,123.0631)"
           id="g32"><path
             id="path34"
             style="fill:#373535;fill-opacity:1;fill-rule:nonzero;stroke:none"
             d="M 0,0 C 2.23,0 4.338,-0.777 5.667,-2.005 L 2.68,-5.604 c -0.532,0.716 -1.39,1.084 -2.393,1.084 -1.616,0 -2.926,-1.207 -2.926,-3.13 0,-1.882 1.351,-3.089 2.926,-3.089 1.104,0 1.943,0.532 2.393,1.166 l 2.987,-3.58 C 4.378,-14.442 2.415,-15.301 0,-15.301 c -4.378,0 -7.875,3.089 -7.875,7.651 C -7.875,-3.007 -4.378,0 0,0" /></g><g
           transform="translate(197.644,112.2623)"
           id="g36"><path
             id="path38"
             style="fill:#373535;fill-opacity:1;fill-rule:nonzero;stroke:none"
             d="M 0,0 C 1.638,0 2.866,1.351 2.866,3.232 2.866,5.115 1.638,6.341 0,6.341 -1.656,6.341 -2.864,5.115 -2.864,3.232 -2.864,1.351 -1.656,0 0,0 m 0,10.801 c 4.583,0 8.061,-2.926 8.061,-7.569 C 8.061,-1.411 4.583,-4.5 0,-4.5 c -4.582,0 -8.039,3.089 -8.039,7.732 0,4.643 3.457,7.569 8.039,7.569" /></g><g
           transform="translate(218.5688,118.5216)"
           id="g40"><path
             id="path42"
             style="fill:#373535;fill-opacity:1;fill-rule:nonzero;stroke:none"
             d="m 0,0 v -6.178 h 0.901 c 2.271,0 3.559,0.941 3.559,3.193 C 4.46,-1.124 3.131,0 1.084,0 Z M -4.683,-10.351 V 4.133 h 5.4 c 4.562,0 8.673,-1.616 8.673,-7.16 0,-5.094 -3.968,-7.324 -8.264,-7.324 z" /></g><g
           transform="translate(236.1396,122.6544)"
           id="g44"><path
             id="path46"
             style="fill:#373535;fill-opacity:1;fill-rule:nonzero;stroke:none"
             d="M 0,0 H 9.962 V -4.051 H 4.582 V -5.299 H 9.635 V -9.083 H 4.582 v -1.349 h 5.727 v -4.051 H 0 Z" /></g><path
           id="path48"
           style="fill:#3f4096;fill-opacity:1;fill-rule:nonzero;stroke:none"
           d="m 135.366,89.374 h -1.069 v 10.527 h 1.069 z" /><g
           transform="translate(139.0107,96.3331)"
           id="g50"><path
             id="path52"
             style="fill:#3f4096;fill-opacity:1;fill-rule:nonzero;stroke:none"
             d="m 0,0 c 0.031,-0.372 0.06,-0.892 0.06,-1.189 h 0.029 c 0.387,0.802 1.398,1.367 2.379,1.367 1.77,0 2.648,-1.144 2.648,-2.869 V -6.959 H 4.104 v 3.852 c 0,1.457 -0.43,2.437 -1.889,2.437 -1.069,0 -2.11,-0.863 -2.11,-2.721 v -3.568 h -1.011 v 5.426 c 0,0.373 -0.014,1.057 -0.06,1.533 z" /></g><g
           transform="translate(147.6528,96.3331)"
           id="g54"><path
             id="path56"
             style="fill:#3f4096;fill-opacity:1;fill-rule:nonzero;stroke:none"
             d="m 0,0 c 0.031,-0.372 0.06,-0.892 0.06,-1.189 h 0.029 c 0.387,0.802 1.398,1.367 2.379,1.367 1.77,0 2.647,-1.144 2.647,-2.869 V -6.959 H 4.104 v 3.852 c 0,1.457 -0.431,2.437 -1.889,2.437 -1.069,0 -2.11,-0.863 -2.11,-2.721 v -3.568 h -1.011 v 5.426 c 0,0.373 -0.015,1.057 -0.06,1.533 z" /></g><g
           transform="translate(158.5864,95.6632)"
           id="g58"><path
             id="path60"
             style="fill:#3f4096;fill-opacity:1;fill-rule:nonzero;stroke:none"
             d="m 0,0 c -1.605,0 -2.631,-1.248 -2.631,-2.81 0,-1.561 1.026,-2.794 2.631,-2.794 1.622,0 2.647,1.233 2.647,2.794 C 2.647,-1.248 1.622,0 0,0 m 0,-6.467 c -2.155,0 -3.703,1.56 -3.703,3.657 0,2.096 1.548,3.658 3.703,3.658 2.172,0 3.717,-1.562 3.717,-3.658 0,-2.097 -1.545,-3.657 -3.717,-3.657" /></g><g
           transform="translate(167.3335,89.3741)"
           id="g62"><path
             id="path64"
             style="fill:#3f4096;fill-opacity:1;fill-rule:nonzero;stroke:none"
             d="m 0,0 h -1.115 l -2.84,6.959 h 1.13 l 2.261,-5.89 h 0.028 l 2.276,5.89 h 1.086 z" /></g><g
           transform="translate(175.8267,92.8536)"
           id="g66"><path
             id="path68"
             style="fill:#3f4096;fill-opacity:1;fill-rule:nonzero;stroke:none"
             d="m 0,0 c -1.649,0 -3.568,-0.178 -3.568,-1.502 0,-0.997 0.848,-1.323 1.636,-1.323 1.427,0 2.23,1.071 2.23,2.304 l 0,0.521 z m 0.298,1.012 c 0,1.204 -0.654,1.798 -1.858,1.798 -0.819,0 -1.576,-0.328 -2.066,-0.818 L -4.191,2.66 c 0.565,0.567 1.545,0.997 2.735,0.997 1.501,0 2.706,-0.833 2.706,-2.527 v -3.048 c 0,-0.535 0.045,-1.175 0.119,-1.561 H 0.461 C 0.401,-3.138 0.358,-2.721 0.358,-2.35 H 0.329 c -0.64,-0.921 -1.413,-1.307 -2.528,-1.307 -1.057,0 -2.41,0.564 -2.41,2.11 0,2.141 2.365,2.335 4.907,2.335 z" /></g><g
           transform="translate(182.6709,95.4845)"
           id="g70"><path
             id="path72"
             style="fill:#3f4096;fill-opacity:1;fill-rule:nonzero;stroke:none"
             d="m 0,0 h -1.961 v -4.059 c 0,-1.04 0.43,-1.278 1.041,-1.278 0.281,0 0.608,0.089 0.877,0.224 L 0,-5.992 c -0.356,-0.133 -0.728,-0.207 -1.189,-0.207 -0.743,0 -1.784,0.327 -1.784,1.857 V 0 h -1.442 v 0.849 h 1.442 v 1.963 h 1.012 V 0.849 l 1.961,0 z" /></g><path
           id="path74"
           style="fill:#3f4096;fill-opacity:1;fill-rule:nonzero;stroke:none"
           d="m 185.277,89.374 h -1.012 v 6.959 h 1.012 z m -0.507,8.922 c -0.356,0 -0.713,0.296 -0.713,0.712 0,0.418 0.357,0.715 0.713,0.715 0.358,0 0.714,-0.297 0.714,-0.715 0,-0.416 -0.356,-0.712 -0.714,-0.712" /><g
           transform="translate(191.166,95.6632)"
           id="g76"><path
             id="path78"
             style="fill:#3f4096;fill-opacity:1;fill-rule:nonzero;stroke:none"
             d="m 0,0 c -1.605,0 -2.631,-1.248 -2.631,-2.81 0,-1.561 1.026,-2.794 2.631,-2.794 1.622,0 2.647,1.233 2.647,2.794 C 2.647,-1.248 1.622,0 0,0 m 0,-6.467 c -2.156,0 -3.701,1.56 -3.701,3.657 0,2.096 1.545,3.658 3.701,3.658 2.172,0 3.717,-1.562 3.717,-3.658 0,-2.097 -1.545,-3.657 -3.717,-3.657" /></g><g
           transform="translate(197.9648,96.3331)"
           id="g80"><path
             id="path82"
             style="fill:#3f4096;fill-opacity:1;fill-rule:nonzero;stroke:none"
             d="m 0,0 c 0.031,-0.372 0.06,-0.892 0.06,-1.189 h 0.029 c 0.387,0.802 1.398,1.367 2.379,1.367 1.77,0 2.647,-1.144 2.647,-2.869 V -6.959 H 4.104 v 3.852 c 0,1.457 -0.431,2.437 -1.889,2.437 -1.069,0 -2.11,-0.863 -2.11,-2.721 v -3.568 h -1.011 v 5.426 c 0,0.373 -0.015,1.057 -0.06,1.533 z" /></g><g
           transform="translate(210.6851,93.1202)"
           id="g84"><path
             id="path86"
             style="fill:#3f4096;fill-opacity:1;fill-rule:nonzero;stroke:none"
             d="M 0,0 H 4.64 L 2.319,5.592 Z M -1.545,-3.746 H -2.72 L 1.829,6.781 h 1.04 L 7.389,-3.746 H 6.2 L 5.041,-0.98 h -5.442 z" /></g><g
           transform="translate(227.3408,98.0128)"
           id="g88"><path
             id="path90"
             style="fill:#3f4096;fill-opacity:1;fill-rule:nonzero;stroke:none"
             d="m 0,0 c -0.729,0.773 -1.74,1.219 -3.047,1.219 -2.706,0 -4.371,-2.142 -4.371,-4.595 0,-2.453 1.665,-4.578 4.371,-4.578 1.189,0 2.23,0.281 2.84,0.683 v 3.198 h -2.454 v 0.935 H 0.862 V -7.88 c -1.144,-0.684 -2.496,-1.025 -3.924,-1.025 -3.181,0 -5.486,2.333 -5.486,5.529 0,3.198 2.348,5.531 5.486,5.531 1.666,0 2.913,-0.535 3.807,-1.413 z" /></g></g></g><g
       id="g92"><g
         id="g94"><g
           id="g100"><g
             id="g102"><path
               id="path110"
               style="fill:url(#linearGradient108);stroke:none"
               d="m 122.991,203.699 c 0,-22.172 12.333,-42.13 32.184,-52.086 v 0 c 0.862,-0.435 1.891,-0.387 2.715,0.12 v 0 c 0.823,0.507 1.324,1.406 1.324,2.374 v 0 24.73 h 41.561 c 1.54,0 2.789,1.248 2.789,2.789 v 0 26.536 c 0,1.541 -1.249,2.789 -2.789,2.789 v 0 h -41.561 v 21.775 h 45.279 c 1.541,0 2.79,1.248 2.79,2.789 v 0 13.99 c 16.32,-9.289 26.647,-26.814 26.647,-45.806 v 0 c 0,-29.037 -23.632,-52.662 -52.68,-52.662 v 0 c -2.217,0 -4.445,0.139 -6.627,0.411 v 0 c -1.532,0.19 -2.922,-0.891 -3.114,-2.42 v 0 c -0.191,-1.529 0.893,-2.922 2.421,-3.115 v 0 c 2.411,-0.302 4.873,-0.454 7.32,-0.454 v 0 c 32.124,0 58.258,26.127 58.258,58.24 v 0 c 0,22.654 -13.285,43.42 -33.846,52.906 v 0 c -0.864,0.401 -1.872,0.331 -2.672,-0.182 v 0 c -0.801,-0.513 -1.286,-1.399 -1.286,-2.35 v 0 -15.769 h -45.279 c -1.54,0 -2.789,-1.249 -2.789,-2.789 v 0 -27.353 c 0,-1.541 1.249,-2.79 2.789,-2.79 v 0 h 41.561 v -20.957 h -41.561 c -1.54,0 -2.789,-1.247 -2.789,-2.789 v 0 -22.78 c -15.571,9.56 -25.066,26.355 -25.066,44.853 v 0 c 0,29.047 23.633,52.68 52.68,52.68 v 0 c 1.914,0 3.846,-0.105 5.743,-0.31 v 0 c 1.527,-0.155 2.907,0.941 3.073,2.472 v 0 c 0.166,1.532 -0.941,2.908 -2.473,3.074 v 0 c -2.095,0.226 -4.228,0.342 -6.343,0.342 v 0 c -32.124,0 -58.259,-26.135 -58.259,-58.258" /></g></g></g></g></g></svg>